<mxfile host="app.diagrams.net" modified="2022-05-16T01:10:29.648Z" agent="5.0 (Windows NT 10.0; Win64; x64) AppleWebKit/537.36 (KHTML, like Gecko) Chrome/101.0.4951.54 Safari/537.36" etag="Uh7vtiKMraZLE0XF4Vho" version="18.0.1" type="github">
  <diagram name="Page-1" id="0783ab3e-0a74-02c8-0abd-f7b4e66b4bec">
    <mxGraphModel dx="2385" dy="1462" grid="0" gridSize="10" guides="1" tooltips="1" connect="1" arrows="1" fold="1" page="0" pageScale="1" pageWidth="850" pageHeight="1100" background="none" math="0" shadow="0">
      <root>
        <mxCell id="0" />
        <mxCell id="1" parent="0" />
        <mxCell id="fGIOzbz2lDKWcKWGyc6j-84" value="" style="shape=ext;double=1;rounded=1;whiteSpace=wrap;html=1;fillColor=#1ba1e2;strokeColor=none;fontColor=#ffffff;" vertex="1" parent="1">
          <mxGeometry x="-672" y="4719.62" width="484.5" height="145.38" as="geometry" />
        </mxCell>
        <mxCell id="fGIOzbz2lDKWcKWGyc6j-105" value="影像资料" style="shape=cylinder3;whiteSpace=wrap;html=1;boundedLbl=1;backgroundOutline=1;size=15;fillColor=#0037A6;fontColor=#ffffff;strokeColor=#001DBC;" vertex="1" parent="1">
          <mxGeometry x="-610" y="4783" width="60" height="64" as="geometry" />
        </mxCell>
        <mxCell id="1c1d494c118603dd-1" value="乘用车" style="swimlane;html=1;childLayout=stackLayout;startSize=20;rounded=0;shadow=0;comic=0;labelBackgroundColor=none;strokeWidth=1;fontFamily=Verdana;fontSize=12;align=center;" parent="1" vertex="1">
          <mxGeometry x="-870" y="-450" width="750" height="990" as="geometry" />
        </mxCell>
        <mxCell id="1c1d494c118603dd-2" value="Lane 1" style="swimlane;html=1;startSize=20;" parent="1c1d494c118603dd-1" vertex="1">
          <mxGeometry y="20" width="250" height="970" as="geometry" />
        </mxCell>
        <mxCell id="1c1d494c118603dd-34" style="edgeStyle=none;rounded=0;html=1;labelBackgroundColor=none;startArrow=none;startFill=0;startSize=5;endArrow=classicThin;endFill=1;endSize=5;jettySize=auto;orthogonalLoop=1;strokeWidth=1;fontFamily=Verdana;fontSize=12" parent="1c1d494c118603dd-2" source="1c1d494c118603dd-6" target="1c1d494c118603dd-10" edge="1">
          <mxGeometry relative="1" as="geometry" />
        </mxCell>
        <mxCell id="1c1d494c118603dd-6" value="Action" style="rounded=1;whiteSpace=wrap;html=1;shadow=0;comic=0;labelBackgroundColor=none;strokeWidth=1;fontFamily=Verdana;fontSize=12;align=center;arcSize=50;" parent="1c1d494c118603dd-2" vertex="1">
          <mxGeometry x="90" y="220" width="100" height="30" as="geometry" />
        </mxCell>
        <mxCell id="1c1d494c118603dd-7" value="Action" style="rounded=1;whiteSpace=wrap;html=1;shadow=0;comic=0;labelBackgroundColor=none;strokeWidth=1;fontFamily=Verdana;fontSize=12;align=center;arcSize=50;" parent="1c1d494c118603dd-2" vertex="1">
          <mxGeometry x="80" y="335" width="100" height="30" as="geometry" />
        </mxCell>
        <mxCell id="1c1d494c118603dd-35" style="edgeStyle=none;rounded=0;html=1;labelBackgroundColor=none;startArrow=none;startFill=0;startSize=5;endArrow=classicThin;endFill=1;endSize=5;jettySize=auto;orthogonalLoop=1;strokeWidth=1;fontFamily=Verdana;fontSize=12" parent="1c1d494c118603dd-2" source="1c1d494c118603dd-10" target="1c1d494c118603dd-7" edge="1">
          <mxGeometry relative="1" as="geometry" />
        </mxCell>
        <mxCell id="1c1d494c118603dd-10" value="Object" style="rounded=0;whiteSpace=wrap;html=1;shadow=0;comic=0;labelBackgroundColor=none;strokeWidth=1;fontFamily=Verdana;fontSize=12;align=center;arcSize=50;" parent="1c1d494c118603dd-2" vertex="1">
          <mxGeometry x="140" y="280" width="70" height="30" as="geometry" />
        </mxCell>
        <mxCell id="1c1d494c118603dd-46" style="edgeStyle=none;rounded=0;html=1;labelBackgroundColor=none;startArrow=none;startFill=0;startSize=5;endArrow=oval;endFill=0;endSize=5;jettySize=auto;orthogonalLoop=1;strokeWidth=1;fontFamily=Verdana;fontSize=12;dashed=1;" parent="1c1d494c118603dd-2" source="1c1d494c118603dd-21" target="1c1d494c118603dd-6" edge="1">
          <mxGeometry relative="1" as="geometry" />
        </mxCell>
        <mxCell id="1c1d494c118603dd-47" style="edgeStyle=none;rounded=0;html=1;dashed=1;labelBackgroundColor=none;startArrow=none;startFill=0;startSize=5;endArrow=oval;endFill=0;endSize=5;jettySize=auto;orthogonalLoop=1;strokeWidth=1;fontFamily=Verdana;fontSize=12" parent="1c1d494c118603dd-2" source="1c1d494c118603dd-21" target="1c1d494c118603dd-10" edge="1">
          <mxGeometry relative="1" as="geometry" />
        </mxCell>
        <mxCell id="1c1d494c118603dd-21" value="Note" style="shape=note;whiteSpace=wrap;html=1;rounded=0;shadow=0;comic=0;labelBackgroundColor=none;strokeWidth=1;fontFamily=Verdana;fontSize=12;align=center;size=20;" parent="1c1d494c118603dd-2" vertex="1">
          <mxGeometry x="20" y="274" width="85" height="42" as="geometry" />
        </mxCell>
        <mxCell id="1c1d494c118603dd-3" value="Lane 2" style="swimlane;html=1;startSize=20;" parent="1c1d494c118603dd-1" vertex="1">
          <mxGeometry x="250" y="20" width="250" height="970" as="geometry" />
        </mxCell>
        <mxCell id="60571a20871a0731-3" value="" style="whiteSpace=wrap;html=1;rounded=0;shadow=0;comic=0;labelBackgroundColor=none;strokeWidth=1;fillColor=#000000;fontFamily=Verdana;fontSize=12;align=center;rotation=0;" parent="1c1d494c118603dd-3" vertex="1">
          <mxGeometry x="30" y="160" width="147" height="10" as="geometry" />
        </mxCell>
        <mxCell id="1c1d494c118603dd-40" style="edgeStyle=none;rounded=0;html=1;labelBackgroundColor=none;startArrow=none;startFill=0;startSize=5;endArrow=classicThin;endFill=1;endSize=5;jettySize=auto;orthogonalLoop=1;strokeWidth=1;fontFamily=Verdana;fontSize=12" parent="1c1d494c118603dd-3" source="1c1d494c118603dd-11" target="1c1d494c118603dd-15" edge="1">
          <mxGeometry relative="1" as="geometry" />
        </mxCell>
        <mxCell id="1c1d494c118603dd-11" value="Action" style="rounded=1;whiteSpace=wrap;html=1;shadow=0;comic=0;labelBackgroundColor=none;strokeWidth=1;fontFamily=Verdana;fontSize=12;align=center;arcSize=50;" parent="1c1d494c118603dd-3" vertex="1">
          <mxGeometry x="64" y="450" width="100" height="30" as="geometry" />
        </mxCell>
        <mxCell id="1c1d494c118603dd-39" style="edgeStyle=none;rounded=0;html=1;labelBackgroundColor=none;startArrow=none;startFill=0;startSize=5;endArrow=classicThin;endFill=1;endSize=5;jettySize=auto;orthogonalLoop=1;strokeWidth=1;fontFamily=Verdana;fontSize=12" parent="1c1d494c118603dd-3" source="1c1d494c118603dd-12" target="1c1d494c118603dd-11" edge="1">
          <mxGeometry relative="1" as="geometry" />
        </mxCell>
        <mxCell id="1c1d494c118603dd-12" value="" style="whiteSpace=wrap;html=1;rounded=0;shadow=0;comic=0;labelBackgroundColor=none;strokeWidth=1;fillColor=#000000;fontFamily=Verdana;fontSize=12;align=center;rotation=0;" parent="1c1d494c118603dd-3" vertex="1">
          <mxGeometry x="40" y="410" width="147" height="10" as="geometry" />
        </mxCell>
        <mxCell id="1c1d494c118603dd-32" style="edgeStyle=orthogonalEdgeStyle;rounded=0;html=1;entryX=0.25;entryY=0;labelBackgroundColor=none;startArrow=none;startFill=0;startSize=5;endArrow=classicThin;endFill=1;endSize=5;jettySize=auto;orthogonalLoop=1;strokeWidth=1;fontFamily=Verdana;fontSize=12" parent="1c1d494c118603dd-3" source="1c1d494c118603dd-14" target="1c1d494c118603dd-12" edge="1">
          <mxGeometry relative="1" as="geometry" />
        </mxCell>
        <mxCell id="1c1d494c118603dd-14" value="Object" style="rounded=0;whiteSpace=wrap;html=1;shadow=0;comic=0;labelBackgroundColor=none;strokeWidth=1;fontFamily=Verdana;fontSize=12;align=center;arcSize=50;" parent="1c1d494c118603dd-3" vertex="1">
          <mxGeometry x="-40" y="365" width="70" height="30" as="geometry" />
        </mxCell>
        <mxCell id="1c1d494c118603dd-41" style="edgeStyle=none;rounded=0;html=1;labelBackgroundColor=none;startArrow=none;startFill=0;startSize=5;endArrow=classicThin;endFill=1;endSize=5;jettySize=auto;orthogonalLoop=1;strokeWidth=1;fontFamily=Verdana;fontSize=12" parent="1c1d494c118603dd-3" source="1c1d494c118603dd-15" target="1c1d494c118603dd-16" edge="1">
          <mxGeometry relative="1" as="geometry" />
        </mxCell>
        <mxCell id="1c1d494c118603dd-15" value="Object" style="rounded=0;whiteSpace=wrap;html=1;shadow=0;comic=0;labelBackgroundColor=none;strokeWidth=1;fontFamily=Verdana;fontSize=12;align=center;arcSize=50;" parent="1c1d494c118603dd-3" vertex="1">
          <mxGeometry x="125" y="510" width="70" height="30" as="geometry" />
        </mxCell>
        <mxCell id="1c1d494c118603dd-16" value="Action" style="rounded=1;whiteSpace=wrap;html=1;shadow=0;comic=0;labelBackgroundColor=none;strokeWidth=1;fontFamily=Verdana;fontSize=12;align=center;arcSize=50;" parent="1c1d494c118603dd-3" vertex="1">
          <mxGeometry x="85" y="580" width="100" height="30" as="geometry" />
        </mxCell>
        <mxCell id="1c1d494c118603dd-52" style="edgeStyle=none;rounded=0;html=1;dashed=1;labelBackgroundColor=none;startArrow=none;startFill=0;startSize=5;endArrow=oval;endFill=0;endSize=5;jettySize=auto;orthogonalLoop=1;strokeWidth=1;fontFamily=Verdana;fontSize=12" parent="1c1d494c118603dd-3" source="1c1d494c118603dd-23" target="1c1d494c118603dd-11" edge="1">
          <mxGeometry relative="1" as="geometry" />
        </mxCell>
        <mxCell id="1c1d494c118603dd-53" style="edgeStyle=none;rounded=0;html=1;dashed=1;labelBackgroundColor=none;startArrow=none;startFill=0;startSize=5;endArrow=oval;endFill=0;endSize=5;jettySize=auto;orthogonalLoop=1;strokeWidth=1;fontFamily=Verdana;fontSize=12" parent="1c1d494c118603dd-3" source="1c1d494c118603dd-23" target="1c1d494c118603dd-15" edge="1">
          <mxGeometry relative="1" as="geometry" />
        </mxCell>
        <mxCell id="1c1d494c118603dd-23" value="Note" style="shape=note;whiteSpace=wrap;html=1;rounded=0;shadow=0;comic=0;labelBackgroundColor=none;strokeWidth=1;fontFamily=Verdana;fontSize=12;align=center;size=20;" parent="1c1d494c118603dd-3" vertex="1">
          <mxGeometry x="10" y="510" width="90" height="55" as="geometry" />
        </mxCell>
        <mxCell id="1c1d494c118603dd-54" style="edgeStyle=none;rounded=0;html=1;dashed=1;labelBackgroundColor=none;startArrow=none;startFill=0;startSize=5;endArrow=oval;endFill=0;endSize=5;jettySize=auto;orthogonalLoop=1;strokeWidth=1;fontFamily=Verdana;fontSize=12" parent="1c1d494c118603dd-3" source="1c1d494c118603dd-24" target="1c1d494c118603dd-16" edge="1">
          <mxGeometry relative="1" as="geometry" />
        </mxCell>
        <mxCell id="1c1d494c118603dd-24" value="Note" style="shape=note;whiteSpace=wrap;html=1;rounded=0;shadow=0;comic=0;labelBackgroundColor=none;strokeWidth=1;fontFamily=Verdana;fontSize=12;align=center;size=20;" parent="1c1d494c118603dd-3" vertex="1">
          <mxGeometry x="40" y="648" width="105" height="55" as="geometry" />
        </mxCell>
        <mxCell id="1c1d494c118603dd-4" value="Lane 3" style="swimlane;html=1;startSize=20;" parent="1c1d494c118603dd-1" vertex="1">
          <mxGeometry x="500" y="20" width="250" height="970" as="geometry" />
        </mxCell>
        <mxCell id="1c1d494c118603dd-27" style="edgeStyle=orthogonalEdgeStyle;rounded=0;html=1;labelBackgroundColor=none;startArrow=none;startFill=0;startSize=5;endArrow=classicThin;endFill=1;endSize=5;jettySize=auto;orthogonalLoop=1;strokeWidth=1;fontFamily=Verdana;fontSize=12" parent="1c1d494c118603dd-4" source="60571a20871a0731-4" target="60571a20871a0731-8" edge="1">
          <mxGeometry relative="1" as="geometry" />
        </mxCell>
        <mxCell id="60571a20871a0731-4" value="" style="ellipse;whiteSpace=wrap;html=1;rounded=0;shadow=0;comic=0;labelBackgroundColor=none;strokeWidth=1;fillColor=#000000;fontFamily=Verdana;fontSize=12;align=center;" parent="1c1d494c118603dd-4" vertex="1">
          <mxGeometry x="80" y="40" width="40" height="40" as="geometry" />
        </mxCell>
        <mxCell id="60571a20871a0731-8" value="Action" style="rounded=1;whiteSpace=wrap;html=1;shadow=0;comic=0;labelBackgroundColor=none;strokeWidth=1;fontFamily=Verdana;fontSize=12;align=center;arcSize=50;" parent="1c1d494c118603dd-4" vertex="1">
          <mxGeometry x="50" y="110" width="100" height="30" as="geometry" />
        </mxCell>
        <mxCell id="1c1d494c118603dd-33" style="rounded=0;html=1;labelBackgroundColor=none;startArrow=none;startFill=0;startSize=5;endArrow=classicThin;endFill=1;endSize=5;jettySize=auto;orthogonalLoop=1;strokeWidth=1;fontFamily=Verdana;fontSize=12" parent="1c1d494c118603dd-4" source="1c1d494c118603dd-5" target="1c1d494c118603dd-9" edge="1">
          <mxGeometry relative="1" as="geometry" />
        </mxCell>
        <mxCell id="1c1d494c118603dd-5" value="Action" style="rounded=1;whiteSpace=wrap;html=1;shadow=0;comic=0;labelBackgroundColor=none;strokeWidth=1;fontFamily=Verdana;fontSize=12;align=center;arcSize=50;" parent="1c1d494c118603dd-4" vertex="1">
          <mxGeometry x="45" y="208" width="100" height="30" as="geometry" />
        </mxCell>
        <mxCell id="1c1d494c118603dd-38" style="edgeStyle=none;rounded=0;html=1;labelBackgroundColor=none;startArrow=none;startFill=0;startSize=5;endArrow=classicThin;endFill=1;endSize=5;jettySize=auto;orthogonalLoop=1;strokeWidth=1;fontFamily=Verdana;fontSize=12" parent="1c1d494c118603dd-4" source="1c1d494c118603dd-8" target="1c1d494c118603dd-13" edge="1">
          <mxGeometry relative="1" as="geometry" />
        </mxCell>
        <mxCell id="1c1d494c118603dd-8" value="Action" style="rounded=1;whiteSpace=wrap;html=1;shadow=0;comic=0;labelBackgroundColor=none;strokeWidth=1;fontFamily=Verdana;fontSize=12;align=center;arcSize=50;" parent="1c1d494c118603dd-4" vertex="1">
          <mxGeometry x="85" y="330" width="100" height="30" as="geometry" />
        </mxCell>
        <mxCell id="1c1d494c118603dd-37" style="edgeStyle=none;rounded=0;html=1;labelBackgroundColor=none;startArrow=none;startFill=0;startSize=5;endArrow=classicThin;endFill=1;endSize=5;jettySize=auto;orthogonalLoop=1;strokeWidth=1;fontFamily=Verdana;fontSize=12" parent="1c1d494c118603dd-4" source="1c1d494c118603dd-9" target="1c1d494c118603dd-8" edge="1">
          <mxGeometry relative="1" as="geometry" />
        </mxCell>
        <mxCell id="1c1d494c118603dd-9" value="Object" style="rounded=0;whiteSpace=wrap;html=1;shadow=0;comic=0;labelBackgroundColor=none;strokeWidth=1;fontFamily=Verdana;fontSize=12;align=center;arcSize=50;" parent="1c1d494c118603dd-4" vertex="1">
          <mxGeometry x="15" y="268" width="70" height="30" as="geometry" />
        </mxCell>
        <mxCell id="1c1d494c118603dd-13" value="Object" style="rounded=0;whiteSpace=wrap;html=1;shadow=0;comic=0;labelBackgroundColor=none;strokeWidth=1;fontFamily=Verdana;fontSize=12;align=center;arcSize=50;" parent="1c1d494c118603dd-4" vertex="1">
          <mxGeometry x="-35" y="360" width="70" height="30" as="geometry" />
        </mxCell>
        <mxCell id="1c1d494c118603dd-43" style="edgeStyle=none;rounded=0;html=1;labelBackgroundColor=none;startArrow=none;startFill=0;startSize=5;endArrow=classicThin;endFill=1;endSize=5;jettySize=auto;orthogonalLoop=1;strokeWidth=1;fontFamily=Verdana;fontSize=12" parent="1c1d494c118603dd-4" source="1c1d494c118603dd-17" target="1c1d494c118603dd-18" edge="1">
          <mxGeometry relative="1" as="geometry" />
        </mxCell>
        <mxCell id="1c1d494c118603dd-17" value="Object" style="rounded=0;whiteSpace=wrap;html=1;shadow=0;comic=0;labelBackgroundColor=none;strokeWidth=1;fontFamily=Verdana;fontSize=12;align=center;arcSize=50;" parent="1c1d494c118603dd-4" vertex="1">
          <mxGeometry x="-35" y="610" width="70" height="30" as="geometry" />
        </mxCell>
        <mxCell id="1c1d494c118603dd-44" style="edgeStyle=none;rounded=0;html=1;labelBackgroundColor=none;startArrow=none;startFill=0;startSize=5;endArrow=classicThin;endFill=1;endSize=5;jettySize=auto;orthogonalLoop=1;strokeWidth=1;fontFamily=Verdana;fontSize=12" parent="1c1d494c118603dd-4" source="1c1d494c118603dd-18" target="1c1d494c118603dd-19" edge="1">
          <mxGeometry relative="1" as="geometry" />
        </mxCell>
        <mxCell id="1c1d494c118603dd-18" value="Action" style="rounded=1;whiteSpace=wrap;html=1;shadow=0;comic=0;labelBackgroundColor=none;strokeWidth=1;fontFamily=Verdana;fontSize=12;align=center;arcSize=50;" parent="1c1d494c118603dd-4" vertex="1">
          <mxGeometry x="70" y="670" width="100" height="30" as="geometry" />
        </mxCell>
        <mxCell id="1c1d494c118603dd-45" style="edgeStyle=none;rounded=0;html=1;labelBackgroundColor=none;startArrow=none;startFill=0;startSize=5;endArrow=classicThin;endFill=1;endSize=5;jettySize=auto;orthogonalLoop=1;strokeWidth=1;fontFamily=Verdana;fontSize=12" parent="1c1d494c118603dd-4" source="1c1d494c118603dd-19" target="60571a20871a0731-5" edge="1">
          <mxGeometry relative="1" as="geometry" />
        </mxCell>
        <mxCell id="1c1d494c118603dd-19" value="Action" style="rounded=1;whiteSpace=wrap;html=1;shadow=0;comic=0;labelBackgroundColor=none;strokeWidth=1;fontFamily=Verdana;fontSize=12;align=center;arcSize=50;" parent="1c1d494c118603dd-4" vertex="1">
          <mxGeometry x="70" y="810" width="100" height="30" as="geometry" />
        </mxCell>
        <mxCell id="60571a20871a0731-5" value="" style="shape=mxgraph.bpmn.shape;html=1;verticalLabelPosition=bottom;labelBackgroundColor=#ffffff;verticalAlign=top;perimeter=ellipsePerimeter;outline=end;symbol=terminate;rounded=0;shadow=0;comic=0;strokeWidth=1;fontFamily=Verdana;fontSize=12;align=center;" parent="1c1d494c118603dd-4" vertex="1">
          <mxGeometry x="100" y="880" width="40" height="40" as="geometry" />
        </mxCell>
        <mxCell id="1c1d494c118603dd-48" style="edgeStyle=none;rounded=0;html=1;dashed=1;labelBackgroundColor=none;startArrow=none;startFill=0;startSize=5;endArrow=oval;endFill=0;endSize=5;jettySize=auto;orthogonalLoop=1;strokeWidth=1;fontFamily=Verdana;fontSize=12" parent="1c1d494c118603dd-4" source="1c1d494c118603dd-20" target="1c1d494c118603dd-5" edge="1">
          <mxGeometry relative="1" as="geometry" />
        </mxCell>
        <mxCell id="1c1d494c118603dd-49" style="edgeStyle=none;rounded=0;html=1;dashed=1;labelBackgroundColor=none;startArrow=none;startFill=0;startSize=5;endArrow=oval;endFill=0;endSize=5;jettySize=auto;orthogonalLoop=1;strokeWidth=1;fontFamily=Verdana;fontSize=12" parent="1c1d494c118603dd-4" source="1c1d494c118603dd-20" target="1c1d494c118603dd-9" edge="1">
          <mxGeometry relative="1" as="geometry" />
        </mxCell>
        <mxCell id="1c1d494c118603dd-20" value="Note" style="shape=note;whiteSpace=wrap;html=1;rounded=0;shadow=0;comic=0;labelBackgroundColor=none;strokeWidth=1;fontFamily=Verdana;fontSize=12;align=center;size=20;" parent="1c1d494c118603dd-4" vertex="1">
          <mxGeometry x="160" y="256" width="75" height="44" as="geometry" />
        </mxCell>
        <mxCell id="1c1d494c118603dd-50" style="edgeStyle=none;rounded=0;html=1;dashed=1;labelBackgroundColor=none;startArrow=none;startFill=0;startSize=5;endArrow=oval;endFill=0;endSize=5;jettySize=auto;orthogonalLoop=1;strokeWidth=1;fontFamily=Verdana;fontSize=12" parent="1c1d494c118603dd-4" source="1c1d494c118603dd-22" target="1c1d494c118603dd-8" edge="1">
          <mxGeometry relative="1" as="geometry" />
        </mxCell>
        <mxCell id="1c1d494c118603dd-51" style="edgeStyle=none;rounded=0;html=1;dashed=1;labelBackgroundColor=none;startArrow=none;startFill=0;startSize=5;endArrow=oval;endFill=0;endSize=5;jettySize=auto;orthogonalLoop=1;strokeWidth=1;fontFamily=Verdana;fontSize=12" parent="1c1d494c118603dd-4" source="1c1d494c118603dd-22" target="1c1d494c118603dd-13" edge="1">
          <mxGeometry relative="1" as="geometry" />
        </mxCell>
        <mxCell id="1c1d494c118603dd-22" value="Note" style="shape=note;whiteSpace=wrap;html=1;rounded=0;shadow=0;comic=0;labelBackgroundColor=none;strokeWidth=1;fontFamily=Verdana;fontSize=12;align=center;size=20;" parent="1c1d494c118603dd-4" vertex="1">
          <mxGeometry x="110" y="415" width="105" height="55" as="geometry" />
        </mxCell>
        <mxCell id="1c1d494c118603dd-56" style="edgeStyle=none;rounded=0;html=1;dashed=1;labelBackgroundColor=none;startArrow=none;startFill=0;startSize=5;endArrow=oval;endFill=0;endSize=5;jettySize=auto;orthogonalLoop=1;strokeWidth=1;fontFamily=Verdana;fontSize=12" parent="1c1d494c118603dd-4" source="1c1d494c118603dd-25" target="1c1d494c118603dd-18" edge="1">
          <mxGeometry relative="1" as="geometry" />
        </mxCell>
        <mxCell id="1c1d494c118603dd-57" style="edgeStyle=none;rounded=0;html=1;dashed=1;labelBackgroundColor=none;startArrow=none;startFill=0;startSize=5;endArrow=oval;endFill=0;endSize=5;jettySize=auto;orthogonalLoop=1;strokeWidth=1;fontFamily=Verdana;fontSize=12" parent="1c1d494c118603dd-4" source="1c1d494c118603dd-25" target="1c1d494c118603dd-17" edge="1">
          <mxGeometry relative="1" as="geometry" />
        </mxCell>
        <mxCell id="1c1d494c118603dd-25" value="Note" style="shape=note;whiteSpace=wrap;html=1;rounded=0;shadow=0;comic=0;labelBackgroundColor=none;strokeWidth=1;fontFamily=Verdana;fontSize=12;align=center;size=20;" parent="1c1d494c118603dd-4" vertex="1">
          <mxGeometry x="120" y="590" width="115" height="50" as="geometry" />
        </mxCell>
        <mxCell id="1c1d494c118603dd-58" style="edgeStyle=none;rounded=0;html=1;dashed=1;labelBackgroundColor=none;startArrow=none;startFill=0;startSize=5;endArrow=oval;endFill=0;endSize=5;jettySize=auto;orthogonalLoop=1;strokeWidth=1;fontFamily=Verdana;fontSize=12" parent="1c1d494c118603dd-4" source="1c1d494c118603dd-26" target="1c1d494c118603dd-19" edge="1">
          <mxGeometry relative="1" as="geometry" />
        </mxCell>
        <mxCell id="1c1d494c118603dd-26" value="Note" style="shape=note;whiteSpace=wrap;html=1;rounded=0;shadow=0;comic=0;labelBackgroundColor=none;strokeWidth=1;fontFamily=Verdana;fontSize=12;align=center;size=20;" parent="1c1d494c118603dd-4" vertex="1">
          <mxGeometry x="150" y="740" width="95" height="45" as="geometry" />
        </mxCell>
        <mxCell id="1c1d494c118603dd-28" style="edgeStyle=orthogonalEdgeStyle;rounded=0;html=1;entryX=0.5;entryY=0;labelBackgroundColor=none;startArrow=none;startFill=0;startSize=5;endArrow=classicThin;endFill=1;endSize=5;jettySize=auto;orthogonalLoop=1;strokeWidth=1;fontFamily=Verdana;fontSize=12" parent="1c1d494c118603dd-1" source="60571a20871a0731-8" target="60571a20871a0731-3" edge="1">
          <mxGeometry relative="1" as="geometry">
            <Array as="points">
              <mxPoint x="354" y="145" />
            </Array>
          </mxGeometry>
        </mxCell>
        <mxCell id="1c1d494c118603dd-29" style="edgeStyle=orthogonalEdgeStyle;rounded=0;html=1;exitX=0.75;exitY=1;labelBackgroundColor=none;startArrow=none;startFill=0;startSize=5;endArrow=classicThin;endFill=1;endSize=5;jettySize=auto;orthogonalLoop=1;strokeWidth=1;fontFamily=Verdana;fontSize=12" parent="1c1d494c118603dd-1" source="60571a20871a0731-3" target="1c1d494c118603dd-5" edge="1">
          <mxGeometry relative="1" as="geometry">
            <Array as="points">
              <mxPoint x="390" y="210" />
              <mxPoint x="595" y="210" />
            </Array>
          </mxGeometry>
        </mxCell>
        <mxCell id="1c1d494c118603dd-30" style="edgeStyle=orthogonalEdgeStyle;rounded=0;html=1;exitX=0.25;exitY=1;entryX=0.5;entryY=0;labelBackgroundColor=none;startArrow=none;startFill=0;startSize=5;endArrow=classicThin;endFill=1;endSize=5;jettySize=auto;orthogonalLoop=1;strokeWidth=1;fontFamily=Verdana;fontSize=12" parent="1c1d494c118603dd-1" source="60571a20871a0731-3" target="1c1d494c118603dd-6" edge="1">
          <mxGeometry relative="1" as="geometry">
            <Array as="points">
              <mxPoint x="317" y="210" />
              <mxPoint x="140" y="210" />
            </Array>
          </mxGeometry>
        </mxCell>
        <mxCell id="1c1d494c118603dd-31" style="edgeStyle=orthogonalEdgeStyle;rounded=0;html=1;entryX=0.75;entryY=0;labelBackgroundColor=none;startArrow=none;startFill=0;startSize=5;endArrow=classicThin;endFill=1;endSize=5;jettySize=auto;orthogonalLoop=1;strokeWidth=1;fontFamily=Verdana;fontSize=12" parent="1c1d494c118603dd-1" source="1c1d494c118603dd-13" target="1c1d494c118603dd-12" edge="1">
          <mxGeometry relative="1" as="geometry" />
        </mxCell>
        <mxCell id="1c1d494c118603dd-36" style="edgeStyle=none;rounded=0;html=1;labelBackgroundColor=none;startArrow=none;startFill=0;startSize=5;endArrow=classicThin;endFill=1;endSize=5;jettySize=auto;orthogonalLoop=1;strokeWidth=1;fontFamily=Verdana;fontSize=12" parent="1c1d494c118603dd-1" source="1c1d494c118603dd-7" target="1c1d494c118603dd-14" edge="1">
          <mxGeometry relative="1" as="geometry" />
        </mxCell>
        <mxCell id="1c1d494c118603dd-42" style="edgeStyle=none;rounded=0;html=1;labelBackgroundColor=none;startArrow=none;startFill=0;startSize=5;endArrow=classicThin;endFill=1;endSize=5;jettySize=auto;orthogonalLoop=1;strokeWidth=1;fontFamily=Verdana;fontSize=12" parent="1c1d494c118603dd-1" source="1c1d494c118603dd-16" target="1c1d494c118603dd-17" edge="1">
          <mxGeometry relative="1" as="geometry" />
        </mxCell>
        <mxCell id="1c1d494c118603dd-55" style="edgeStyle=none;rounded=0;html=1;dashed=1;labelBackgroundColor=none;startArrow=none;startFill=0;startSize=5;endArrow=oval;endFill=0;endSize=5;jettySize=auto;orthogonalLoop=1;strokeWidth=1;fontFamily=Verdana;fontSize=12" parent="1c1d494c118603dd-1" source="1c1d494c118603dd-24" target="1c1d494c118603dd-17" edge="1">
          <mxGeometry relative="1" as="geometry" />
        </mxCell>
        <mxCell id="gU0W0a0gaiFxxWFm-yPo-1" value="渠道进件App" style="swimlane;" parent="1" vertex="1">
          <mxGeometry x="-690" y="1120" width="240" height="850" as="geometry" />
        </mxCell>
        <mxCell id="gU0W0a0gaiFxxWFm-yPo-12" value="" style="edgeStyle=orthogonalEdgeStyle;rounded=0;orthogonalLoop=1;jettySize=auto;html=1;" parent="gU0W0a0gaiFxxWFm-yPo-1" target="gU0W0a0gaiFxxWFm-yPo-11" edge="1">
          <mxGeometry relative="1" as="geometry">
            <mxPoint x="120" y="116" as="sourcePoint" />
          </mxGeometry>
        </mxCell>
        <mxCell id="gU0W0a0gaiFxxWFm-yPo-11" value="授权文件签署" style="rounded=0;whiteSpace=wrap;html=1;" parent="gU0W0a0gaiFxxWFm-yPo-1" vertex="1">
          <mxGeometry x="60" y="167" width="120" height="60" as="geometry" />
        </mxCell>
        <mxCell id="gU0W0a0gaiFxxWFm-yPo-20" value="同步状态" style="rounded=0;whiteSpace=wrap;html=1;" parent="gU0W0a0gaiFxxWFm-yPo-1" vertex="1">
          <mxGeometry x="60" y="563" width="120" height="60" as="geometry" />
        </mxCell>
        <mxCell id="gU0W0a0gaiFxxWFm-yPo-26" value="录入融资方案" style="rounded=0;whiteSpace=wrap;html=1;" parent="gU0W0a0gaiFxxWFm-yPo-1" vertex="1">
          <mxGeometry x="60" y="250" width="120" height="60" as="geometry" />
        </mxCell>
        <mxCell id="gU0W0a0gaiFxxWFm-yPo-31" value="上传影像资料" style="rounded=0;whiteSpace=wrap;html=1;" parent="gU0W0a0gaiFxxWFm-yPo-1" vertex="1">
          <mxGeometry x="60" y="361" width="120" height="60" as="geometry" />
        </mxCell>
        <mxCell id="gU0W0a0gaiFxxWFm-yPo-37" value="补传影像资料" style="rounded=0;whiteSpace=wrap;html=1;" parent="gU0W0a0gaiFxxWFm-yPo-1" vertex="1">
          <mxGeometry x="60" y="455" width="120" height="60" as="geometry" />
        </mxCell>
        <mxCell id="gU0W0a0gaiFxxWFm-yPo-67" value="&lt;span style=&quot;font-size: 12px;&quot;&gt;录入客户信息&lt;/span&gt;" style="rounded=1;whiteSpace=wrap;html=1;fontSize=15;" parent="gU0W0a0gaiFxxWFm-yPo-1" vertex="1">
          <mxGeometry x="56" y="55" width="120" height="60" as="geometry" />
        </mxCell>
        <mxCell id="gU0W0a0gaiFxxWFm-yPo-5" value="天津中台" style="swimlane;verticalAlign=middle;fontSize=12;" parent="1" vertex="1">
          <mxGeometry x="-210" y="1120" width="200" height="850" as="geometry" />
        </mxCell>
        <mxCell id="gU0W0a0gaiFxxWFm-yPo-15" value="接收渠道方客户信息接口" style="rounded=0;whiteSpace=wrap;html=1;" parent="gU0W0a0gaiFxxWFm-yPo-5" vertex="1">
          <mxGeometry x="43" y="109" width="120" height="60" as="geometry" />
        </mxCell>
        <mxCell id="gU0W0a0gaiFxxWFm-yPo-18" value="预案，审批结果，放款接口" style="whiteSpace=wrap;html=1;" parent="gU0W0a0gaiFxxWFm-yPo-5" vertex="1">
          <mxGeometry x="43" y="563" width="120" height="60" as="geometry" />
        </mxCell>
        <mxCell id="gU0W0a0gaiFxxWFm-yPo-29" value="接收渠道方订单信息接口" style="rounded=0;whiteSpace=wrap;html=1;" parent="gU0W0a0gaiFxxWFm-yPo-5" vertex="1">
          <mxGeometry x="43" y="250" width="120" height="60" as="geometry" />
        </mxCell>
        <mxCell id="gU0W0a0gaiFxxWFm-yPo-34" value="影像资料上传接口" style="rounded=0;whiteSpace=wrap;html=1;" parent="gU0W0a0gaiFxxWFm-yPo-5" vertex="1">
          <mxGeometry x="43" y="397" width="120" height="60" as="geometry" />
        </mxCell>
        <mxCell id="gU0W0a0gaiFxxWFm-yPo-3" value="渠道进件后台" style="swimlane;startSize=23;" parent="1" vertex="1">
          <mxGeometry x="-450" y="1120" width="240" height="850" as="geometry" />
        </mxCell>
        <mxCell id="gU0W0a0gaiFxxWFm-yPo-13" value="提交客户信息" style="rounded=0;whiteSpace=wrap;html=1;" parent="gU0W0a0gaiFxxWFm-yPo-3" vertex="1">
          <mxGeometry x="60" y="109" width="120" height="60" as="geometry" />
        </mxCell>
        <mxCell id="gI9XP9p-4YF3_r4ZpEHV-15" value="" style="edgeStyle=orthogonalEdgeStyle;rounded=0;orthogonalLoop=1;jettySize=auto;html=1;fontSize=15;" parent="gU0W0a0gaiFxxWFm-yPo-3" source="gU0W0a0gaiFxxWFm-yPo-17" target="gI9XP9p-4YF3_r4ZpEHV-14" edge="1">
          <mxGeometry relative="1" as="geometry" />
        </mxCell>
        <mxCell id="gU0W0a0gaiFxxWFm-yPo-17" value="定时器" style="shape=process;whiteSpace=wrap;html=1;backgroundOutline=1;" parent="gU0W0a0gaiFxxWFm-yPo-3" vertex="1">
          <mxGeometry x="16" y="655" width="120" height="60" as="geometry" />
        </mxCell>
        <mxCell id="gU0W0a0gaiFxxWFm-yPo-21" value="查询同步状态" style="rounded=0;whiteSpace=wrap;html=1;" parent="gU0W0a0gaiFxxWFm-yPo-3" vertex="1">
          <mxGeometry x="60" y="563" width="120" height="60" as="geometry" />
        </mxCell>
        <mxCell id="gU0W0a0gaiFxxWFm-yPo-19" value="" style="edgeStyle=orthogonalEdgeStyle;rounded=0;orthogonalLoop=1;jettySize=auto;html=1;" parent="gU0W0a0gaiFxxWFm-yPo-3" source="gU0W0a0gaiFxxWFm-yPo-17" target="gU0W0a0gaiFxxWFm-yPo-21" edge="1">
          <mxGeometry relative="1" as="geometry">
            <mxPoint x="260" y="570" as="targetPoint" />
            <Array as="points">
              <mxPoint x="80" y="641" />
              <mxPoint x="80" y="641" />
            </Array>
          </mxGeometry>
        </mxCell>
        <mxCell id="gU0W0a0gaiFxxWFm-yPo-27" value="提交融资方案" style="rounded=0;whiteSpace=wrap;html=1;" parent="gU0W0a0gaiFxxWFm-yPo-3" vertex="1">
          <mxGeometry x="60" y="250" width="120" height="60" as="geometry" />
        </mxCell>
        <mxCell id="gU0W0a0gaiFxxWFm-yPo-32" value="提交影像资料" style="rounded=0;whiteSpace=wrap;html=1;" parent="gU0W0a0gaiFxxWFm-yPo-3" vertex="1">
          <mxGeometry x="60" y="361" width="120" height="60" as="geometry" />
        </mxCell>
        <mxCell id="gU0W0a0gaiFxxWFm-yPo-38" value="提交补传影像资料" style="rounded=0;whiteSpace=wrap;html=1;" parent="gU0W0a0gaiFxxWFm-yPo-3" vertex="1">
          <mxGeometry x="60" y="455" width="120" height="60" as="geometry" />
        </mxCell>
        <mxCell id="gI9XP9p-4YF3_r4ZpEHV-28" value="" style="edgeStyle=orthogonalEdgeStyle;rounded=0;orthogonalLoop=1;jettySize=auto;html=1;fontSize=12;" parent="gU0W0a0gaiFxxWFm-yPo-3" source="gI9XP9p-4YF3_r4ZpEHV-14" target="gI9XP9p-4YF3_r4ZpEHV-27" edge="1">
          <mxGeometry relative="1" as="geometry" />
        </mxCell>
        <mxCell id="gI9XP9p-4YF3_r4ZpEHV-14" value="同步经销商、合作方、账户信息" style="whiteSpace=wrap;html=1;" parent="gU0W0a0gaiFxxWFm-yPo-3" vertex="1">
          <mxGeometry x="60" y="755" width="120" height="60" as="geometry" />
        </mxCell>
        <mxCell id="gI9XP9p-4YF3_r4ZpEHV-27" value="查询经销商接口、&lt;br&gt;合作方项目接口、&lt;br&gt;经销商账户信息接口" style="whiteSpace=wrap;html=1;" parent="gU0W0a0gaiFxxWFm-yPo-3" vertex="1">
          <mxGeometry x="284" y="712" width="120" height="60" as="geometry" />
        </mxCell>
        <mxCell id="gU0W0a0gaiFxxWFm-yPo-14" value="" style="edgeStyle=orthogonalEdgeStyle;rounded=0;orthogonalLoop=1;jettySize=auto;html=1;" parent="1" source="gU0W0a0gaiFxxWFm-yPo-11" target="gU0W0a0gaiFxxWFm-yPo-13" edge="1">
          <mxGeometry relative="1" as="geometry">
            <Array as="points">
              <mxPoint x="-459" y="1317" />
              <mxPoint x="-459" y="1259" />
            </Array>
          </mxGeometry>
        </mxCell>
        <mxCell id="gU0W0a0gaiFxxWFm-yPo-16" value="" style="edgeStyle=orthogonalEdgeStyle;rounded=0;orthogonalLoop=1;jettySize=auto;html=1;" parent="1" source="gU0W0a0gaiFxxWFm-yPo-13" target="gU0W0a0gaiFxxWFm-yPo-15" edge="1">
          <mxGeometry relative="1" as="geometry" />
        </mxCell>
        <mxCell id="gU0W0a0gaiFxxWFm-yPo-22" value="" style="edgeStyle=orthogonalEdgeStyle;rounded=0;orthogonalLoop=1;jettySize=auto;html=1;" parent="1" source="gU0W0a0gaiFxxWFm-yPo-20" target="gU0W0a0gaiFxxWFm-yPo-21" edge="1">
          <mxGeometry relative="1" as="geometry" />
        </mxCell>
        <mxCell id="gU0W0a0gaiFxxWFm-yPo-24" value="" style="edgeStyle=orthogonalEdgeStyle;rounded=0;orthogonalLoop=1;jettySize=auto;html=1;" parent="1" source="gU0W0a0gaiFxxWFm-yPo-21" target="gU0W0a0gaiFxxWFm-yPo-18" edge="1">
          <mxGeometry relative="1" as="geometry">
            <mxPoint x="-30.000000000000455" y="1430" as="targetPoint" />
          </mxGeometry>
        </mxCell>
        <mxCell id="gU0W0a0gaiFxxWFm-yPo-28" value="" style="edgeStyle=orthogonalEdgeStyle;rounded=0;orthogonalLoop=1;jettySize=auto;html=1;" parent="1" source="gU0W0a0gaiFxxWFm-yPo-26" target="gU0W0a0gaiFxxWFm-yPo-27" edge="1">
          <mxGeometry relative="1" as="geometry" />
        </mxCell>
        <mxCell id="gU0W0a0gaiFxxWFm-yPo-30" value="" style="edgeStyle=orthogonalEdgeStyle;rounded=0;orthogonalLoop=1;jettySize=auto;html=1;" parent="1" source="gU0W0a0gaiFxxWFm-yPo-27" target="gU0W0a0gaiFxxWFm-yPo-29" edge="1">
          <mxGeometry relative="1" as="geometry" />
        </mxCell>
        <mxCell id="gU0W0a0gaiFxxWFm-yPo-33" value="" style="edgeStyle=orthogonalEdgeStyle;rounded=0;orthogonalLoop=1;jettySize=auto;html=1;" parent="1" source="gU0W0a0gaiFxxWFm-yPo-31" target="gU0W0a0gaiFxxWFm-yPo-32" edge="1">
          <mxGeometry relative="1" as="geometry" />
        </mxCell>
        <mxCell id="gU0W0a0gaiFxxWFm-yPo-35" value="" style="edgeStyle=orthogonalEdgeStyle;rounded=0;orthogonalLoop=1;jettySize=auto;html=1;" parent="1" source="gU0W0a0gaiFxxWFm-yPo-32" target="gU0W0a0gaiFxxWFm-yPo-34" edge="1">
          <mxGeometry relative="1" as="geometry">
            <Array as="points">
              <mxPoint x="-220" y="1511" />
              <mxPoint x="-220" y="1549" />
            </Array>
          </mxGeometry>
        </mxCell>
        <mxCell id="gU0W0a0gaiFxxWFm-yPo-39" value="" style="edgeStyle=orthogonalEdgeStyle;rounded=0;orthogonalLoop=1;jettySize=auto;html=1;" parent="1" source="gU0W0a0gaiFxxWFm-yPo-37" target="gU0W0a0gaiFxxWFm-yPo-38" edge="1">
          <mxGeometry relative="1" as="geometry" />
        </mxCell>
        <mxCell id="gU0W0a0gaiFxxWFm-yPo-41" value="" style="edgeStyle=orthogonalEdgeStyle;rounded=0;orthogonalLoop=1;jettySize=auto;html=1;entryX=-0.011;entryY=0.681;entryDx=0;entryDy=0;entryPerimeter=0;" parent="1" source="gU0W0a0gaiFxxWFm-yPo-38" target="gU0W0a0gaiFxxWFm-yPo-34" edge="1">
          <mxGeometry relative="1" as="geometry">
            <mxPoint x="69.99999999999955" y="1600" as="targetPoint" />
          </mxGeometry>
        </mxCell>
        <mxCell id="gU0W0a0gaiFxxWFm-yPo-45" value="渠道进件App" style="swimlane;" parent="1" vertex="1">
          <mxGeometry x="-670" y="2264" width="232" height="850" as="geometry" />
        </mxCell>
        <mxCell id="gU0W0a0gaiFxxWFm-yPo-46" value="" style="edgeStyle=orthogonalEdgeStyle;rounded=0;orthogonalLoop=1;jettySize=auto;html=1;" parent="gU0W0a0gaiFxxWFm-yPo-45" source="gU0W0a0gaiFxxWFm-yPo-47" target="gU0W0a0gaiFxxWFm-yPo-48" edge="1">
          <mxGeometry relative="1" as="geometry" />
        </mxCell>
        <mxCell id="gU0W0a0gaiFxxWFm-yPo-47" value="选择乘用车" style="rounded=0;whiteSpace=wrap;html=1;" parent="gU0W0a0gaiFxxWFm-yPo-45" vertex="1">
          <mxGeometry x="62" y="56" width="120" height="60" as="geometry" />
        </mxCell>
        <mxCell id="gU0W0a0gaiFxxWFm-yPo-48" value="填写进件方案" style="rounded=0;whiteSpace=wrap;html=1;" parent="gU0W0a0gaiFxxWFm-yPo-45" vertex="1">
          <mxGeometry x="62" y="167" width="120" height="60" as="geometry" />
        </mxCell>
        <mxCell id="gU0W0a0gaiFxxWFm-yPo-49" value="同步状态" style="rounded=0;whiteSpace=wrap;html=1;" parent="gU0W0a0gaiFxxWFm-yPo-45" vertex="1">
          <mxGeometry x="56" y="563" width="120" height="60" as="geometry" />
        </mxCell>
        <mxCell id="gU0W0a0gaiFxxWFm-yPo-51" value="上传影像资料" style="rounded=0;whiteSpace=wrap;html=1;" parent="gU0W0a0gaiFxxWFm-yPo-45" vertex="1">
          <mxGeometry x="56" y="361" width="120" height="60" as="geometry" />
        </mxCell>
        <mxCell id="gU0W0a0gaiFxxWFm-yPo-52" value="补传影像资料" style="rounded=0;whiteSpace=wrap;html=1;" parent="gU0W0a0gaiFxxWFm-yPo-45" vertex="1">
          <mxGeometry x="56" y="455" width="120" height="60" as="geometry" />
        </mxCell>
        <mxCell id="gU0W0a0gaiFxxWFm-yPo-53" value="天津中台" style="swimlane;verticalAlign=middle;fontSize=16;" parent="1" vertex="1">
          <mxGeometry x="-222" y="2264" width="200" height="850" as="geometry" />
        </mxCell>
        <mxCell id="gU0W0a0gaiFxxWFm-yPo-54" value="&lt;ol&gt;&lt;li&gt;&lt;span style=&quot;background-color: initial; text-align: justify;&quot;&gt;车辆品牌查询接口&lt;/span&gt;&lt;br&gt;&lt;/li&gt;&lt;li&gt;&lt;span style=&quot;background-color: initial; text-align: justify;&quot;&gt;车辆系列查询接口&lt;/span&gt;&lt;br&gt;&lt;/li&gt;&lt;li&gt;&lt;span style=&quot;background-color: initial; text-align: justify;&quot;&gt;车辆车型查询接口&lt;/span&gt;&lt;br&gt;&lt;/li&gt;&lt;/ol&gt;" style="rounded=0;whiteSpace=wrap;html=1;align=right;" parent="gU0W0a0gaiFxxWFm-yPo-53" vertex="1">
          <mxGeometry x="32.5" y="62" width="141" height="60" as="geometry" />
        </mxCell>
        <mxCell id="gU0W0a0gaiFxxWFm-yPo-55" value="车辆案件查询接口" style="whiteSpace=wrap;html=1;" parent="gU0W0a0gaiFxxWFm-yPo-53" vertex="1">
          <mxGeometry x="43" y="560" width="120" height="60" as="geometry" />
        </mxCell>
        <mxCell id="gU0W0a0gaiFxxWFm-yPo-56" value="车辆案件提交接口" style="rounded=0;whiteSpace=wrap;html=1;" parent="gU0W0a0gaiFxxWFm-yPo-53" vertex="1">
          <mxGeometry x="40" y="240" width="120" height="60" as="geometry" />
        </mxCell>
        <mxCell id="gU0W0a0gaiFxxWFm-yPo-57" value="影像资料上传接口" style="rounded=0;whiteSpace=wrap;html=1;" parent="gU0W0a0gaiFxxWFm-yPo-53" vertex="1">
          <mxGeometry x="43" y="404" width="120" height="60" as="geometry" />
        </mxCell>
        <mxCell id="gU0W0a0gaiFxxWFm-yPo-73" value="贴息方案详情接口" style="rounded=0;whiteSpace=wrap;html=1;" parent="gU0W0a0gaiFxxWFm-yPo-53" vertex="1">
          <mxGeometry x="40" y="151" width="120" height="60" as="geometry" />
        </mxCell>
        <mxCell id="gU0W0a0gaiFxxWFm-yPo-59" value="渠道进件后台" style="swimlane;" parent="1" vertex="1">
          <mxGeometry x="-438" y="2264" width="216" height="850" as="geometry" />
        </mxCell>
        <mxCell id="gU0W0a0gaiFxxWFm-yPo-60" value="查询贴息方案" style="rounded=0;whiteSpace=wrap;html=1;" parent="gU0W0a0gaiFxxWFm-yPo-59" vertex="1">
          <mxGeometry x="43" y="151" width="120" height="60" as="geometry" />
        </mxCell>
        <mxCell id="gU0W0a0gaiFxxWFm-yPo-61" value="定时器" style="shape=process;whiteSpace=wrap;html=1;backgroundOutline=1;" parent="gU0W0a0gaiFxxWFm-yPo-59" vertex="1">
          <mxGeometry x="43" y="691" width="120" height="60" as="geometry" />
        </mxCell>
        <mxCell id="gU0W0a0gaiFxxWFm-yPo-62" value="查询同步状态" style="rounded=0;whiteSpace=wrap;html=1;" parent="gU0W0a0gaiFxxWFm-yPo-59" vertex="1">
          <mxGeometry x="43" y="564" width="120" height="60" as="geometry" />
        </mxCell>
        <mxCell id="gU0W0a0gaiFxxWFm-yPo-63" value="" style="edgeStyle=orthogonalEdgeStyle;rounded=0;orthogonalLoop=1;jettySize=auto;html=1;" parent="gU0W0a0gaiFxxWFm-yPo-59" source="gU0W0a0gaiFxxWFm-yPo-61" target="gU0W0a0gaiFxxWFm-yPo-62" edge="1">
          <mxGeometry relative="1" as="geometry">
            <mxPoint x="260" y="570" as="targetPoint" />
            <Array as="points">
              <mxPoint x="123" y="711" />
            </Array>
          </mxGeometry>
        </mxCell>
        <mxCell id="gU0W0a0gaiFxxWFm-yPo-64" value="提交进件" style="rounded=0;whiteSpace=wrap;html=1;" parent="gU0W0a0gaiFxxWFm-yPo-59" vertex="1">
          <mxGeometry x="43" y="240" width="120" height="60" as="geometry" />
        </mxCell>
        <mxCell id="gU0W0a0gaiFxxWFm-yPo-65" value="提交影像资料" style="rounded=0;whiteSpace=wrap;html=1;" parent="gU0W0a0gaiFxxWFm-yPo-59" vertex="1">
          <mxGeometry x="43" y="364" width="120" height="60" as="geometry" />
        </mxCell>
        <mxCell id="gU0W0a0gaiFxxWFm-yPo-66" value="提交补传影像资料" style="rounded=0;whiteSpace=wrap;html=1;" parent="gU0W0a0gaiFxxWFm-yPo-59" vertex="1">
          <mxGeometry x="45" y="458" width="120" height="60" as="geometry" />
        </mxCell>
        <mxCell id="gU0W0a0gaiFxxWFm-yPo-68" value="乘用车车型库接口" style="rounded=0;whiteSpace=wrap;html=1;" parent="gU0W0a0gaiFxxWFm-yPo-59" vertex="1">
          <mxGeometry x="43" y="62" width="120" height="60" as="geometry" />
        </mxCell>
        <mxCell id="gU0W0a0gaiFxxWFm-yPo-69" value="" style="edgeStyle=orthogonalEdgeStyle;rounded=0;orthogonalLoop=1;jettySize=auto;html=1;fontSize=15;" parent="1" source="gU0W0a0gaiFxxWFm-yPo-47" target="gU0W0a0gaiFxxWFm-yPo-68" edge="1">
          <mxGeometry relative="1" as="geometry">
            <Array as="points">
              <mxPoint x="-414" y="2358" />
              <mxPoint x="-414" y="2358" />
            </Array>
          </mxGeometry>
        </mxCell>
        <mxCell id="gU0W0a0gaiFxxWFm-yPo-70" value="" style="edgeStyle=orthogonalEdgeStyle;rounded=0;orthogonalLoop=1;jettySize=auto;html=1;fontSize=15;" parent="1" source="gU0W0a0gaiFxxWFm-yPo-68" target="gU0W0a0gaiFxxWFm-yPo-54" edge="1">
          <mxGeometry relative="1" as="geometry" />
        </mxCell>
        <mxCell id="gU0W0a0gaiFxxWFm-yPo-74" value="" style="edgeStyle=orthogonalEdgeStyle;rounded=0;orthogonalLoop=1;jettySize=auto;html=1;fontSize=15;" parent="1" source="gU0W0a0gaiFxxWFm-yPo-60" target="gU0W0a0gaiFxxWFm-yPo-73" edge="1">
          <mxGeometry relative="1" as="geometry" />
        </mxCell>
        <mxCell id="gU0W0a0gaiFxxWFm-yPo-77" value="" style="edgeStyle=orthogonalEdgeStyle;rounded=0;orthogonalLoop=1;jettySize=auto;html=1;fontSize=15;" parent="1" source="gU0W0a0gaiFxxWFm-yPo-48" target="gU0W0a0gaiFxxWFm-yPo-64" edge="1">
          <mxGeometry relative="1" as="geometry">
            <mxPoint x="-408" y="2529" as="targetPoint" />
            <Array as="points">
              <mxPoint x="-418" y="2477" />
              <mxPoint x="-418" y="2529" />
            </Array>
          </mxGeometry>
        </mxCell>
        <mxCell id="gI9XP9p-4YF3_r4ZpEHV-1" value="" style="endArrow=classic;html=1;rounded=0;fontSize=15;" parent="1" source="gU0W0a0gaiFxxWFm-yPo-64" target="gU0W0a0gaiFxxWFm-yPo-56" edge="1">
          <mxGeometry width="50" height="50" relative="1" as="geometry">
            <mxPoint x="-207" y="2646" as="sourcePoint" />
            <mxPoint x="-157" y="2596" as="targetPoint" />
          </mxGeometry>
        </mxCell>
        <mxCell id="gI9XP9p-4YF3_r4ZpEHV-2" value="" style="endArrow=classic;html=1;rounded=0;fontSize=15;" parent="1" source="gU0W0a0gaiFxxWFm-yPo-51" target="gU0W0a0gaiFxxWFm-yPo-65" edge="1">
          <mxGeometry width="50" height="50" relative="1" as="geometry">
            <mxPoint x="-207" y="2653" as="sourcePoint" />
            <mxPoint x="-157" y="2603" as="targetPoint" />
          </mxGeometry>
        </mxCell>
        <mxCell id="gI9XP9p-4YF3_r4ZpEHV-3" value="" style="endArrow=classic;html=1;rounded=0;fontSize=15;" parent="1" source="gU0W0a0gaiFxxWFm-yPo-52" target="gU0W0a0gaiFxxWFm-yPo-66" edge="1">
          <mxGeometry width="50" height="50" relative="1" as="geometry">
            <mxPoint x="-207" y="2653" as="sourcePoint" />
            <mxPoint x="-157" y="2603" as="targetPoint" />
          </mxGeometry>
        </mxCell>
        <mxCell id="gI9XP9p-4YF3_r4ZpEHV-6" value="" style="endArrow=classic;startArrow=classic;html=1;rounded=0;fontSize=15;entryX=0;entryY=0.5;entryDx=0;entryDy=0;" parent="1" source="gU0W0a0gaiFxxWFm-yPo-49" target="gU0W0a0gaiFxxWFm-yPo-62" edge="1">
          <mxGeometry width="50" height="50" relative="1" as="geometry">
            <mxPoint x="-207" y="2778" as="sourcePoint" />
            <mxPoint x="-157" y="2728" as="targetPoint" />
          </mxGeometry>
        </mxCell>
        <mxCell id="gI9XP9p-4YF3_r4ZpEHV-7" value="" style="endArrow=classic;html=1;rounded=0;fontSize=15;" parent="1" source="gU0W0a0gaiFxxWFm-yPo-62" target="gU0W0a0gaiFxxWFm-yPo-55" edge="1">
          <mxGeometry width="50" height="50" relative="1" as="geometry">
            <mxPoint x="-207" y="2778" as="sourcePoint" />
            <mxPoint x="-157" y="2728" as="targetPoint" />
          </mxGeometry>
        </mxCell>
        <mxCell id="gI9XP9p-4YF3_r4ZpEHV-11" style="edgeStyle=orthogonalEdgeStyle;rounded=0;orthogonalLoop=1;jettySize=auto;html=1;exitX=1;exitY=0.25;exitDx=0;exitDy=0;fontSize=15;" parent="1" source="gU0W0a0gaiFxxWFm-yPo-48" target="gU0W0a0gaiFxxWFm-yPo-60" edge="1">
          <mxGeometry relative="1" as="geometry">
            <Array as="points">
              <mxPoint x="-488" y="2445" />
            </Array>
          </mxGeometry>
        </mxCell>
        <mxCell id="gI9XP9p-4YF3_r4ZpEHV-12" style="edgeStyle=orthogonalEdgeStyle;rounded=0;orthogonalLoop=1;jettySize=auto;html=1;exitX=1;exitY=0.75;exitDx=0;exitDy=0;fontSize=15;" parent="1" source="gU0W0a0gaiFxxWFm-yPo-65" target="gU0W0a0gaiFxxWFm-yPo-57" edge="1">
          <mxGeometry relative="1" as="geometry" />
        </mxCell>
        <mxCell id="gI9XP9p-4YF3_r4ZpEHV-13" style="edgeStyle=orthogonalEdgeStyle;rounded=0;orthogonalLoop=1;jettySize=auto;html=1;exitX=1;exitY=0.5;exitDx=0;exitDy=0;entryX=0;entryY=0.75;entryDx=0;entryDy=0;fontSize=15;" parent="1" source="gU0W0a0gaiFxxWFm-yPo-66" target="gU0W0a0gaiFxxWFm-yPo-57" edge="1">
          <mxGeometry relative="1" as="geometry" />
        </mxCell>
        <mxCell id="gU0W0a0gaiFxxWFm-yPo-42" value="根据返回结果，客户端到达录入融资方案、上传影像资料、补传影像资料、拒单、放款完成" style="shape=note;whiteSpace=wrap;html=1;backgroundOutline=1;darkOpacity=0.05;fontSize=15;verticalAlign=middle;" parent="1" vertex="1">
          <mxGeometry x="2" y="1643" width="120" height="140" as="geometry" />
        </mxCell>
        <mxCell id="gU0W0a0gaiFxxWFm-yPo-58" value="根据返回结果，客户端到达上传影像资料、补传影像资料、拒单、放款完成" style="shape=note;whiteSpace=wrap;html=1;backgroundOutline=1;darkOpacity=0.05;fontSize=15;verticalAlign=middle;" parent="1" vertex="1">
          <mxGeometry x="-10" y="2784" width="120" height="140" as="geometry" />
        </mxCell>
        <mxCell id="fGIOzbz2lDKWcKWGyc6j-1" value="" style="whiteSpace=wrap;html=1;aspect=fixed;" vertex="1" parent="1">
          <mxGeometry x="-652" y="3235" width="471" height="471" as="geometry" />
        </mxCell>
        <mxCell id="fGIOzbz2lDKWcKWGyc6j-11" value="" style="rounded=0;whiteSpace=wrap;html=1;" vertex="1" parent="1">
          <mxGeometry x="-621.25" y="3301" width="177.5" height="140" as="geometry" />
        </mxCell>
        <mxCell id="fGIOzbz2lDKWcKWGyc6j-4" value="商用车业务数据" style="shape=cylinder3;whiteSpace=wrap;html=1;boundedLbl=1;backgroundOutline=1;size=15;fontFamily=Helvetica;fontSize=12;align=center;strokeColor=#36393d;fillColor=#cce5ff;" vertex="1" parent="1">
          <mxGeometry x="-598" y="3352" width="135" height="60" as="geometry" />
        </mxCell>
        <mxCell id="fGIOzbz2lDKWcKWGyc6j-25" value="" style="rounded=0;whiteSpace=wrap;html=1;" vertex="1" parent="1">
          <mxGeometry x="-512" y="3475" width="180.5" height="107" as="geometry" />
        </mxCell>
        <mxCell id="fGIOzbz2lDKWcKWGyc6j-3" value="公共管理数据" style="shape=cylinder3;whiteSpace=wrap;html=1;boundedLbl=1;backgroundOutline=1;size=15;fontFamily=Helvetica;fontSize=12;align=center;strokeColor=#36393d;fillColor=#cce5ff;" vertex="1" parent="1">
          <mxGeometry x="-492" y="3512" width="135" height="60" as="geometry" />
        </mxCell>
        <mxCell id="fGIOzbz2lDKWcKWGyc6j-12" value="公共子系统" style="text;html=1;strokeColor=none;fillColor=none;align=center;verticalAlign=middle;whiteSpace=wrap;rounded=0;" vertex="1" parent="1">
          <mxGeometry x="-516" y="3475" width="107" height="30" as="geometry" />
        </mxCell>
        <mxCell id="fGIOzbz2lDKWcKWGyc6j-26" value="商用车子系统" style="text;html=1;strokeColor=none;fillColor=none;align=center;verticalAlign=middle;whiteSpace=wrap;rounded=0;" vertex="1" parent="1">
          <mxGeometry x="-621.25" y="3302" width="107" height="30" as="geometry" />
        </mxCell>
        <mxCell id="fGIOzbz2lDKWcKWGyc6j-28" value="" style="rounded=0;whiteSpace=wrap;html=1;" vertex="1" parent="1">
          <mxGeometry x="-421" y="3302" width="177.5" height="139" as="geometry" />
        </mxCell>
        <mxCell id="fGIOzbz2lDKWcKWGyc6j-27" value="乘用车子系统" style="text;html=1;strokeColor=none;fillColor=none;align=center;verticalAlign=middle;whiteSpace=wrap;rounded=0;" vertex="1" parent="1">
          <mxGeometry x="-421" y="3302" width="107" height="30" as="geometry" />
        </mxCell>
        <mxCell id="fGIOzbz2lDKWcKWGyc6j-22" value="乘用车业务数据" style="shape=cylinder3;whiteSpace=wrap;html=1;boundedLbl=1;backgroundOutline=1;size=15;fontFamily=Helvetica;fontSize=12;align=center;strokeColor=#36393d;fillColor=#cce5ff;" vertex="1" parent="1">
          <mxGeometry x="-410" y="3352" width="135" height="60" as="geometry" />
        </mxCell>
        <mxCell id="fGIOzbz2lDKWcKWGyc6j-29" value="" style="endArrow=classic;startArrow=classic;html=1;rounded=0;exitX=0.5;exitY=0;exitDx=0;exitDy=0;" edge="1" parent="1" source="fGIOzbz2lDKWcKWGyc6j-12" target="fGIOzbz2lDKWcKWGyc6j-11">
          <mxGeometry width="50" height="50" relative="1" as="geometry">
            <mxPoint x="-472" y="3485" as="sourcePoint" />
            <mxPoint x="-349" y="3455" as="targetPoint" />
          </mxGeometry>
        </mxCell>
        <mxCell id="fGIOzbz2lDKWcKWGyc6j-30" value="" style="endArrow=classic;startArrow=classic;html=1;rounded=0;exitX=0.726;exitY=0.008;exitDx=0;exitDy=0;exitPerimeter=0;" edge="1" parent="1" source="fGIOzbz2lDKWcKWGyc6j-25" target="fGIOzbz2lDKWcKWGyc6j-28">
          <mxGeometry width="50" height="50" relative="1" as="geometry">
            <mxPoint x="-390" y="3475" as="sourcePoint" />
            <mxPoint x="-349" y="3455" as="targetPoint" />
          </mxGeometry>
        </mxCell>
        <mxCell id="fGIOzbz2lDKWcKWGyc6j-32" value="" style="rounded=0;whiteSpace=wrap;html=1;" vertex="1" parent="1">
          <mxGeometry x="-612.25" y="3615" width="381" height="79" as="geometry" />
        </mxCell>
        <mxCell id="fGIOzbz2lDKWcKWGyc6j-7" value="文件数据" style="shape=cylinder3;whiteSpace=wrap;html=1;boundedLbl=1;backgroundOutline=1;size=15;fontFamily=Helvetica;fontSize=12;align=center;strokeColor=#36393d;fillColor=#cce5ff;" vertex="1" parent="1">
          <mxGeometry x="-580" y="3639" width="121" height="50" as="geometry" />
        </mxCell>
        <mxCell id="fGIOzbz2lDKWcKWGyc6j-9" value="日志数据" style="shape=cylinder3;whiteSpace=wrap;html=1;boundedLbl=1;backgroundOutline=1;size=15;fontFamily=Helvetica;fontSize=12;align=center;strokeColor=#36393d;fillColor=#cce5ff;" vertex="1" parent="1">
          <mxGeometry x="-407" y="3638" width="124" height="52" as="geometry" />
        </mxCell>
        <mxCell id="fGIOzbz2lDKWcKWGyc6j-33" value="" style="endArrow=classic;html=1;rounded=0;exitX=0.5;exitY=1;exitDx=0;exitDy=0;" edge="1" parent="1" source="fGIOzbz2lDKWcKWGyc6j-25" target="fGIOzbz2lDKWcKWGyc6j-32">
          <mxGeometry width="50" height="50" relative="1" as="geometry">
            <mxPoint x="-380" y="3594" as="sourcePoint" />
            <mxPoint x="-330" y="3544" as="targetPoint" />
          </mxGeometry>
        </mxCell>
        <mxCell id="fGIOzbz2lDKWcKWGyc6j-35" value="渠道进件数据逻辑架构" style="text;html=1;strokeColor=none;fillColor=none;align=center;verticalAlign=middle;whiteSpace=wrap;rounded=0;" vertex="1" parent="1">
          <mxGeometry x="-502" y="3248" width="155" height="30" as="geometry" />
        </mxCell>
        <mxCell id="fGIOzbz2lDKWcKWGyc6j-36" value="" style="rounded=0;whiteSpace=wrap;html=1;" vertex="1" parent="1">
          <mxGeometry x="-166" y="3914" width="159" height="167" as="geometry" />
        </mxCell>
        <mxCell id="fGIOzbz2lDKWcKWGyc6j-37" value="" style="rounded=0;whiteSpace=wrap;html=1;" vertex="1" parent="1">
          <mxGeometry x="-361" y="3914" width="159" height="169" as="geometry" />
        </mxCell>
        <mxCell id="fGIOzbz2lDKWcKWGyc6j-38" value="" style="rounded=0;whiteSpace=wrap;html=1;" vertex="1" parent="1">
          <mxGeometry x="-568" y="3914" width="159" height="168" as="geometry" />
        </mxCell>
        <mxCell id="fGIOzbz2lDKWcKWGyc6j-39" value="&lt;p class=&quot;MsoNormal&quot;&gt;&lt;span style=&quot;mso-spacerun:&#39;yes&#39;;font-family:宋体;font-size:10.5000pt;&lt;br/&gt;mso-font-kerning:1.0000pt;&quot;&gt;PostgreSQL集群&lt;/span&gt;&lt;/p&gt;" style="text;html=1;strokeColor=none;fillColor=none;align=center;verticalAlign=middle;whiteSpace=wrap;rounded=0;" vertex="1" parent="1">
          <mxGeometry x="-331.5" y="3923" width="92" height="30" as="geometry" />
        </mxCell>
        <mxCell id="fGIOzbz2lDKWcKWGyc6j-40" value="&lt;p class=&quot;MsoNormal&quot;&gt;&lt;span style=&quot;background-color: transparent; font-family: 宋体, &amp;quot;Helvetica Neue&amp;quot;, Helvetica, &amp;quot;PingFang SC&amp;quot;, &amp;quot;Microsoft YaHei&amp;quot;, &amp;quot;Source Han Sans SC&amp;quot;, &amp;quot;Noto Sans CJK SC&amp;quot;, &amp;quot;WenQuanYi Micro Hei&amp;quot;, sans-serif; font-size: 12pt; letter-spacing: 0pt; text-align: justify;&quot;&gt;Mongodb&lt;/span&gt;&lt;span&gt;集群&lt;/span&gt;&lt;/p&gt;" style="text;html=1;strokeColor=none;fillColor=none;align=center;verticalAlign=middle;whiteSpace=wrap;rounded=0;" vertex="1" parent="1">
          <mxGeometry x="-132.5" y="3923.5" width="92" height="30" as="geometry" />
        </mxCell>
        <mxCell id="fGIOzbz2lDKWcKWGyc6j-41" value="&lt;p class=&quot;MsoNormal&quot;&gt;&lt;span style=&quot;background-color: transparent; font-family: 宋体, &amp;quot;Helvetica Neue&amp;quot;, Helvetica, &amp;quot;PingFang SC&amp;quot;, &amp;quot;Microsoft YaHei&amp;quot;, &amp;quot;Source Han Sans SC&amp;quot;, &amp;quot;Noto Sans CJK SC&amp;quot;, &amp;quot;WenQuanYi Micro Hei&amp;quot;, sans-serif; font-size: 12pt; letter-spacing: 0pt; text-align: justify;&quot;&gt;Redis&lt;/span&gt;&lt;span&gt;集群&lt;/span&gt;&lt;/p&gt;" style="text;html=1;strokeColor=none;fillColor=none;align=center;verticalAlign=middle;whiteSpace=wrap;rounded=0;" vertex="1" parent="1">
          <mxGeometry x="-541" y="3920" width="92" height="30" as="geometry" />
        </mxCell>
        <mxCell id="fGIOzbz2lDKWcKWGyc6j-63" value="&lt;span style=&quot;text-align: left;&quot;&gt;认证Token&lt;/span&gt;" style="rounded=0;whiteSpace=wrap;html=1;" vertex="1" parent="1">
          <mxGeometry x="-548" y="3955" width="119" height="27" as="geometry" />
        </mxCell>
        <mxCell id="fGIOzbz2lDKWcKWGyc6j-64" value="&lt;span style=&quot;text-align: left;&quot;&gt;基础数据&lt;/span&gt;&lt;span style=&quot;text-align: left;&quot;&gt;缓存&lt;/span&gt;" style="rounded=0;whiteSpace=wrap;html=1;" vertex="1" parent="1">
          <mxGeometry x="-548" y="3982" width="119" height="28" as="geometry" />
        </mxCell>
        <mxCell id="fGIOzbz2lDKWcKWGyc6j-65" value="&lt;div style=&quot;text-align: left;&quot;&gt;&lt;span style=&quot;background-color: initial;&quot;&gt;参数配置缓存&lt;/span&gt;&lt;/div&gt;" style="rounded=0;whiteSpace=wrap;html=1;" vertex="1" parent="1">
          <mxGeometry x="-548" y="4010" width="119" height="26" as="geometry" />
        </mxCell>
        <mxCell id="fGIOzbz2lDKWcKWGyc6j-67" value="&lt;span style=&quot;text-align: left;&quot;&gt;基础数据&lt;/span&gt;" style="rounded=0;whiteSpace=wrap;html=1;" vertex="1" parent="1">
          <mxGeometry x="-341" y="3982" width="119" height="28" as="geometry" />
        </mxCell>
        <mxCell id="fGIOzbz2lDKWcKWGyc6j-68" value="&lt;div style=&quot;text-align: left;&quot;&gt;&lt;span style=&quot;background-color: initial;&quot;&gt;参数配置&lt;/span&gt;&lt;/div&gt;" style="rounded=0;whiteSpace=wrap;html=1;" vertex="1" parent="1">
          <mxGeometry x="-341" y="4010" width="119" height="26" as="geometry" />
        </mxCell>
        <mxCell id="fGIOzbz2lDKWcKWGyc6j-69" value="&lt;span style=&quot;text-align: left;&quot;&gt;业务数据&lt;/span&gt;" style="rounded=0;whiteSpace=wrap;html=1;" vertex="1" parent="1">
          <mxGeometry x="-341" y="4036" width="119" height="28" as="geometry" />
        </mxCell>
        <mxCell id="fGIOzbz2lDKWcKWGyc6j-70" value="&lt;span style=&quot;text-align: left;&quot;&gt;文件数据&lt;/span&gt;" style="rounded=0;whiteSpace=wrap;html=1;" vertex="1" parent="1">
          <mxGeometry x="-146" y="3979" width="119" height="37.5" as="geometry" />
        </mxCell>
        <mxCell id="fGIOzbz2lDKWcKWGyc6j-71" value="&lt;span style=&quot;text-align: left;&quot;&gt;日志数据&lt;/span&gt;" style="rounded=0;whiteSpace=wrap;html=1;" vertex="1" parent="1">
          <mxGeometry x="-146" y="4016.5" width="119" height="37" as="geometry" />
        </mxCell>
        <mxCell id="fGIOzbz2lDKWcKWGyc6j-74" value="" style="endArrow=classic;startArrow=classic;html=1;rounded=0;exitX=1;exitY=0.5;exitDx=0;exitDy=0;" edge="1" parent="1" source="fGIOzbz2lDKWcKWGyc6j-64" target="fGIOzbz2lDKWcKWGyc6j-67">
          <mxGeometry width="50" height="50" relative="1" as="geometry">
            <mxPoint x="-411" y="4003" as="sourcePoint" />
            <mxPoint x="-361" y="3953" as="targetPoint" />
          </mxGeometry>
        </mxCell>
        <mxCell id="fGIOzbz2lDKWcKWGyc6j-75" value="" style="endArrow=classic;startArrow=classic;html=1;rounded=0;exitX=1;exitY=0.5;exitDx=0;exitDy=0;" edge="1" parent="1">
          <mxGeometry width="50" height="50" relative="1" as="geometry">
            <mxPoint x="-429" y="4022.86" as="sourcePoint" />
            <mxPoint x="-340.9999999999998" y="4022.86" as="targetPoint" />
          </mxGeometry>
        </mxCell>
        <mxCell id="fGIOzbz2lDKWcKWGyc6j-76" value="" style="endArrow=classic;startArrow=classic;html=1;rounded=0;exitX=1;exitY=0.5;exitDx=0;exitDy=0;" edge="1" parent="1">
          <mxGeometry width="50" height="50" relative="1" as="geometry">
            <mxPoint x="-429" y="3969.36" as="sourcePoint" />
            <mxPoint x="-340.9999999999998" y="3969.36" as="targetPoint" />
          </mxGeometry>
        </mxCell>
        <mxCell id="fGIOzbz2lDKWcKWGyc6j-77" value="&lt;span style=&quot;text-align: left;&quot;&gt;权限数据&lt;/span&gt;" style="rounded=0;whiteSpace=wrap;html=1;" vertex="1" parent="1">
          <mxGeometry x="-341" y="3954" width="119" height="28" as="geometry" />
        </mxCell>
        <mxCell id="fGIOzbz2lDKWcKWGyc6j-78" value="&lt;pre&gt;同步&lt;/pre&gt;" style="text;html=1;strokeColor=none;fillColor=none;align=center;verticalAlign=middle;whiteSpace=wrap;rounded=0;" vertex="1" parent="1">
          <mxGeometry x="-421" y="3955.5" width="71" height="11" as="geometry" />
        </mxCell>
        <mxCell id="fGIOzbz2lDKWcKWGyc6j-79" value="&lt;pre&gt;同步&lt;/pre&gt;" style="text;html=1;strokeColor=none;fillColor=none;align=center;verticalAlign=middle;whiteSpace=wrap;rounded=0;" vertex="1" parent="1">
          <mxGeometry x="-421" y="3983.5" width="71" height="11" as="geometry" />
        </mxCell>
        <mxCell id="fGIOzbz2lDKWcKWGyc6j-80" value="&lt;pre&gt;同步&lt;/pre&gt;" style="text;html=1;strokeColor=none;fillColor=none;align=center;verticalAlign=middle;whiteSpace=wrap;rounded=0;" vertex="1" parent="1">
          <mxGeometry x="-421" y="4010" width="71" height="11" as="geometry" />
        </mxCell>
        <mxCell id="fGIOzbz2lDKWcKWGyc6j-82" value="" style="endArrow=classic;html=1;rounded=0;" edge="1" parent="1">
          <mxGeometry width="50" height="50" relative="1" as="geometry">
            <mxPoint x="-202" y="4008" as="sourcePoint" />
            <mxPoint x="-165" y="4008" as="targetPoint" />
          </mxGeometry>
        </mxCell>
        <mxCell id="fGIOzbz2lDKWcKWGyc6j-83" value="同步" style="text;html=1;strokeColor=none;fillColor=none;align=center;verticalAlign=middle;whiteSpace=wrap;rounded=0;" vertex="1" parent="1">
          <mxGeometry x="-213" y="3981" width="60" height="30" as="geometry" />
        </mxCell>
        <mxCell id="fGIOzbz2lDKWcKWGyc6j-85" value="" style="shape=ext;double=1;rounded=1;whiteSpace=wrap;html=1;fillColor=#008a00;strokeColor=none;fontColor=#ffffff;" vertex="1" parent="1">
          <mxGeometry x="-673" y="4920" width="486" height="113" as="geometry" />
        </mxCell>
        <mxCell id="fGIOzbz2lDKWcKWGyc6j-86" value="&lt;font color=&quot;#fffbf7&quot;&gt;前置系统&lt;/font&gt;" style="text;html=1;strokeColor=none;fillColor=none;align=center;verticalAlign=middle;whiteSpace=wrap;rounded=0;rotation=90;horizontal=0;" vertex="1" parent="1">
          <mxGeometry x="-700" y="4776" width="100" height="23" as="geometry" />
        </mxCell>
        <mxCell id="fGIOzbz2lDKWcKWGyc6j-87" value="&lt;font color=&quot;#fffbf7&quot;&gt;渠道进件系统&lt;/font&gt;" style="text;html=1;strokeColor=none;fillColor=none;align=center;verticalAlign=middle;whiteSpace=wrap;rounded=0;rotation=90;horizontal=0;" vertex="1" parent="1">
          <mxGeometry x="-700" y="4966.5" width="100" height="23" as="geometry" />
        </mxCell>
        <mxCell id="fGIOzbz2lDKWcKWGyc6j-93" value="业务类" style="shape=cylinder3;whiteSpace=wrap;html=1;boundedLbl=1;backgroundOutline=1;size=15;fillColor=#0037A6;fontColor=#ffffff;strokeColor=#001DBC;" vertex="1" parent="1">
          <mxGeometry x="-621.25" y="4940" width="90.25" height="61" as="geometry" />
        </mxCell>
        <mxCell id="fGIOzbz2lDKWcKWGyc6j-94" value="客户类" style="shape=cylinder3;whiteSpace=wrap;html=1;boundedLbl=1;backgroundOutline=1;size=15;fillColor=#0037A6;fontColor=#ffffff;strokeColor=#001DBC;" vertex="1" parent="1">
          <mxGeometry x="-610" y="4755.5" width="60" height="64" as="geometry" />
        </mxCell>
        <mxCell id="fGIOzbz2lDKWcKWGyc6j-95" value="融资方案" style="shape=cylinder3;whiteSpace=wrap;html=1;boundedLbl=1;backgroundOutline=1;size=15;fillColor=#0037A6;fontColor=#ffffff;strokeColor=#001DBC;" vertex="1" parent="1">
          <mxGeometry x="-552" y="4760" width="60" height="64" as="geometry" />
        </mxCell>
        <mxCell id="fGIOzbz2lDKWcKWGyc6j-96" value="订单类" style="shape=cylinder3;whiteSpace=wrap;html=1;boundedLbl=1;backgroundOutline=1;size=15;fillColor=#0037A6;fontColor=#ffffff;strokeColor=#001DBC;" vertex="1" parent="1">
          <mxGeometry x="-493" y="4757.5" width="60" height="64" as="geometry" />
        </mxCell>
        <mxCell id="fGIOzbz2lDKWcKWGyc6j-88" value="&lt;p class=&quot;MsoNormal&quot;&gt;&lt;span style=&quot;mso-spacerun:&#39;yes&#39;;font-family:宋体;mso-bidi-font-family:&#39;Times New Roman&#39;;&lt;br/&gt;font-size:12.0000pt;mso-font-kerning:1.0000pt;&quot;&gt;业务数据&lt;/span&gt;&lt;/p&gt;" style="shape=cylinder3;whiteSpace=wrap;html=1;boundedLbl=1;backgroundOutline=1;size=15;fillColor=#0037A6;fontColor=#ffffff;strokeColor=#001DBC;" vertex="1" parent="1">
          <mxGeometry x="-610" y="4732" width="177" height="60" as="geometry" />
        </mxCell>
        <mxCell id="fGIOzbz2lDKWcKWGyc6j-97" value="渠道类" style="shape=cylinder3;whiteSpace=wrap;html=1;boundedLbl=1;backgroundOutline=1;size=15;fillColor=#0037A6;fontColor=#ffffff;strokeColor=#001DBC;" vertex="1" parent="1">
          <mxGeometry x="-409" y="4757.5" width="60" height="64" as="geometry" />
        </mxCell>
        <mxCell id="fGIOzbz2lDKWcKWGyc6j-98" value="经销商" style="shape=cylinder3;whiteSpace=wrap;html=1;boundedLbl=1;backgroundOutline=1;size=15;fillColor=#0037A6;fontColor=#ffffff;strokeColor=#001DBC;" vertex="1" parent="1">
          <mxGeometry x="-351" y="4762" width="60" height="64" as="geometry" />
        </mxCell>
        <mxCell id="fGIOzbz2lDKWcKWGyc6j-99" value="账户类" style="shape=cylinder3;whiteSpace=wrap;html=1;boundedLbl=1;backgroundOutline=1;size=15;fillColor=#0037A6;fontColor=#ffffff;strokeColor=#001DBC;" vertex="1" parent="1">
          <mxGeometry x="-292" y="4759.5" width="60" height="64" as="geometry" />
        </mxCell>
        <mxCell id="fGIOzbz2lDKWcKWGyc6j-100" value="&lt;p class=&quot;MsoNormal&quot;&gt;&lt;span&gt;合作方类&lt;/span&gt;&lt;/p&gt;" style="shape=cylinder3;whiteSpace=wrap;html=1;boundedLbl=1;backgroundOutline=1;size=15;fillColor=#0037A6;fontColor=#ffffff;strokeColor=#001DBC;" vertex="1" parent="1">
          <mxGeometry x="-409" y="4734" width="177" height="60" as="geometry" />
        </mxCell>
        <mxCell id="fGIOzbz2lDKWcKWGyc6j-106" value="公共管理数据" style="shape=cylinder3;whiteSpace=wrap;html=1;boundedLbl=1;backgroundOutline=1;size=15;fillColor=#0037A6;fontColor=#ffffff;strokeColor=#001DBC;" vertex="1" parent="1">
          <mxGeometry x="-514.25" y="4940" width="95" height="61" as="geometry" />
        </mxCell>
        <mxCell id="fGIOzbz2lDKWcKWGyc6j-107" value="业务流水日志" style="shape=cylinder3;whiteSpace=wrap;html=1;boundedLbl=1;backgroundOutline=1;size=15;fillColor=#0037A6;fontColor=#ffffff;strokeColor=#001DBC;" vertex="1" parent="1">
          <mxGeometry x="-302" y="4939.5" width="95" height="62" as="geometry" />
        </mxCell>
        <mxCell id="fGIOzbz2lDKWcKWGyc6j-108" value="基础数据" style="shape=cylinder3;whiteSpace=wrap;html=1;boundedLbl=1;backgroundOutline=1;size=15;fillColor=#0037A6;fontColor=#ffffff;strokeColor=#001DBC;" vertex="1" parent="1">
          <mxGeometry x="-407" y="4942" width="95" height="59" as="geometry" />
        </mxCell>
        <mxCell id="fGIOzbz2lDKWcKWGyc6j-109" value="" style="endArrow=classic;html=1;rounded=0;fontColor=#FFFBF7;exitX=0.233;exitY=-0.013;exitDx=0;exitDy=0;exitPerimeter=0;entryX=0.231;entryY=1.003;entryDx=0;entryDy=0;entryPerimeter=0;" edge="1" parent="1" source="fGIOzbz2lDKWcKWGyc6j-85" target="fGIOzbz2lDKWcKWGyc6j-84">
          <mxGeometry width="50" height="50" relative="1" as="geometry">
            <mxPoint x="-475" y="4888" as="sourcePoint" />
            <mxPoint x="-425" y="4838" as="targetPoint" />
          </mxGeometry>
        </mxCell>
        <mxCell id="fGIOzbz2lDKWcKWGyc6j-110" value="" style="endArrow=classic;html=1;rounded=0;fontColor=#FFFBF7;exitX=0.656;exitY=0.995;exitDx=0;exitDy=0;exitPerimeter=0;" edge="1" parent="1" source="fGIOzbz2lDKWcKWGyc6j-84">
          <mxGeometry width="50" height="50" relative="1" as="geometry">
            <mxPoint x="-475" y="4888" as="sourcePoint" />
            <mxPoint x="-354" y="4920" as="targetPoint" />
          </mxGeometry>
        </mxCell>
        <mxCell id="fGIOzbz2lDKWcKWGyc6j-111" value="&lt;font color=&quot;#0037a6&quot;&gt;数据同步&lt;/font&gt;" style="text;html=1;strokeColor=none;fillColor=none;align=center;verticalAlign=middle;whiteSpace=wrap;rounded=0;fontColor=#FFFBF7;" vertex="1" parent="1">
          <mxGeometry x="-564" y="4884" width="67" height="18" as="geometry" />
        </mxCell>
        <mxCell id="fGIOzbz2lDKWcKWGyc6j-112" value="&lt;font color=&quot;#0037a6&quot;&gt;数据同步&lt;/font&gt;" style="text;html=1;strokeColor=none;fillColor=none;align=center;verticalAlign=middle;whiteSpace=wrap;rounded=0;fontColor=#FFFBF7;" vertex="1" parent="1">
          <mxGeometry x="-359" y="4880" width="67" height="18" as="geometry" />
        </mxCell>
        <mxCell id="fGIOzbz2lDKWcKWGyc6j-114" value="" style="rounded=0;whiteSpace=wrap;html=1;fillColor=#BCEBFF;strokeColor=#10739e;" vertex="1" parent="1">
          <mxGeometry x="-838" y="5211" width="299" height="269" as="geometry" />
        </mxCell>
        <mxCell id="fGIOzbz2lDKWcKWGyc6j-115" value="应用服务" style="rounded=0;whiteSpace=wrap;html=1;" vertex="1" parent="1">
          <mxGeometry x="-798" y="5314" width="93" height="38" as="geometry" />
        </mxCell>
        <mxCell id="fGIOzbz2lDKWcKWGyc6j-116" value="批量任务" style="rounded=0;whiteSpace=wrap;html=1;" vertex="1" parent="1">
          <mxGeometry x="-680" y="5314" width="93" height="38" as="geometry" />
        </mxCell>
        <mxCell id="fGIOzbz2lDKWcKWGyc6j-117" value="日终任务" style="rounded=0;whiteSpace=wrap;html=1;" vertex="1" parent="1">
          <mxGeometry x="-680" y="5378" width="93" height="38" as="geometry" />
        </mxCell>
        <mxCell id="fGIOzbz2lDKWcKWGyc6j-118" value="客户端" style="rounded=0;whiteSpace=wrap;html=1;" vertex="1" parent="1">
          <mxGeometry x="-816" y="5124" width="93" height="38" as="geometry" />
        </mxCell>
        <mxCell id="fGIOzbz2lDKWcKWGyc6j-119" value="" style="endArrow=classic;html=1;rounded=0;fontColor=#FFFBF7;exitX=0.5;exitY=1;exitDx=0;exitDy=0;entryX=0.227;entryY=0;entryDx=0;entryDy=0;entryPerimeter=0;" edge="1" parent="1" source="fGIOzbz2lDKWcKWGyc6j-118" target="fGIOzbz2lDKWcKWGyc6j-114">
          <mxGeometry width="50" height="50" relative="1" as="geometry">
            <mxPoint x="-542" y="5341" as="sourcePoint" />
            <mxPoint x="-492" y="5291" as="targetPoint" />
          </mxGeometry>
        </mxCell>
        <mxCell id="fGIOzbz2lDKWcKWGyc6j-120" value="关联系统" style="rounded=0;whiteSpace=wrap;html=1;" vertex="1" parent="1">
          <mxGeometry x="-482" y="5318" width="93" height="38" as="geometry" />
        </mxCell>
        <mxCell id="fGIOzbz2lDKWcKWGyc6j-121" value="" style="endArrow=classic;startArrow=classic;html=1;rounded=0;fontColor=#FFFBF7;exitX=1;exitY=0.472;exitDx=0;exitDy=0;exitPerimeter=0;" edge="1" parent="1" source="fGIOzbz2lDKWcKWGyc6j-114" target="fGIOzbz2lDKWcKWGyc6j-120">
          <mxGeometry width="50" height="50" relative="1" as="geometry">
            <mxPoint x="-542" y="5341" as="sourcePoint" />
            <mxPoint x="-492" y="5291" as="targetPoint" />
          </mxGeometry>
        </mxCell>
        <mxCell id="fGIOzbz2lDKWcKWGyc6j-122" value="网关服务" style="rounded=0;whiteSpace=wrap;html=1;" vertex="1" parent="1">
          <mxGeometry x="-798" y="5254" width="93" height="38" as="geometry" />
        </mxCell>
        <mxCell id="fGIOzbz2lDKWcKWGyc6j-123" value="定时服务" style="rounded=0;whiteSpace=wrap;html=1;" vertex="1" parent="1">
          <mxGeometry x="-798" y="5378" width="93" height="38" as="geometry" />
        </mxCell>
        <mxCell id="fGIOzbz2lDKWcKWGyc6j-124" value="&lt;font color=&quot;#000000&quot;&gt;调度服务、业务子系统&lt;/font&gt;" style="text;html=1;strokeColor=none;fillColor=none;align=center;verticalAlign=middle;whiteSpace=wrap;rounded=0;fontColor=#FFFBF7;" vertex="1" parent="1">
          <mxGeometry x="-761" y="5218" width="151" height="30" as="geometry" />
        </mxCell>
      </root>
    </mxGraphModel>
  </diagram>
</mxfile>
